<svg width="32" height="32" viewBox="0 0 32 32" fill="none" xmlns="http://www.w3.org/2000/svg">
<path fill-rule="evenodd" clip-rule="evenodd" d="M16 0C7.16344 0 0 7.16344 0 16C0 24.8366 7.16344 32 16 32C24.8366 32 32 24.8366 32 16C32 7.16344 24.8366 0 16 0ZM20.7412 16.8365C20.5337 17.1674 20.4505 17.3321 20.7412 17.7024C20.763 17.7327 20.8732 17.8442 21.0397 18.0127C21.7433 18.7247 23.4534 20.4552 23.7558 21.3882C23.9192 21.9368 23.6352 22.2149 23.0747 22.2149H21.1084C20.5837 22.2149 20.3191 21.9236 19.7464 21.2934C19.5028 21.0253 19.2036 20.696 18.8049 20.3017C17.636 19.1872 17.1354 19.0421 16.8447 19.0421C16.312 19.0421 16.3133 19.1925 16.3258 20.5904C16.3281 20.8385 16.3306 21.1258 16.3306 21.4585C16.3306 21.9368 16.1778 22.2149 14.9256 22.2149C12.8425 22.2149 10.5525 20.9628 8.92643 18.6522C6.48659 15.2671 5.81818 12.7048 5.81818 12.1895C5.81818 11.8978 5.93133 11.6371 6.49259 11.6371H8.4596C8.9639 11.6371 9.15348 11.8547 9.34756 12.3935C10.309 15.1703 11.9313 17.5966 12.5997 17.5966C12.8507 17.5966 12.9639 17.481 12.9639 16.8523V13.9833C12.9185 13.1658 12.6305 12.8124 12.4172 12.5507C12.2855 12.3891 12.1823 12.2624 12.1823 12.0829C12.1823 11.8676 12.3689 11.6364 12.6829 11.6364H15.7746C16.189 11.6364 16.3291 11.8578 16.3291 12.3534V16.2108C16.3291 16.6241 16.5202 16.7692 16.6431 16.7692C16.8926 16.7692 17.104 16.6241 17.561 16.1715C18.9773 14.6051 19.9784 12.1887 19.9784 12.1887C20.102 11.897 20.3328 11.6364 20.8334 11.6364H22.7997C23.3939 11.6364 23.5168 11.9401 23.3939 12.3534L23.3924 12.3542C23.1451 13.4884 20.745 16.8327 20.7412 16.8365Z" fill="#3951D2"/>
</svg>
