<svg width="32" height="32" viewBox="0 0 32 32" fill="none" xmlns="http://www.w3.org/2000/svg">
<path fill-rule="evenodd" clip-rule="evenodd" d="M16 0C7.16344 0 0 7.16344 0 16C0 24.8366 7.16344 32 16 32C24.8366 32 32 24.8366 32 16C32 7.16344 24.8366 0 16 0ZM15.1997 7.75985H15.1999L15.5153 7.75994C18.0419 7.75994 18.3413 7.76901 19.3391 7.81436C20.2617 7.85656 20.7625 8.01074 21.096 8.14028C21.5377 8.31182 21.8525 8.51688 22.1835 8.84813C22.5147 9.17937 22.7197 9.49485 22.8916 9.93651C23.0212 10.2697 23.1755 10.7705 23.2175 11.6933C23.2629 12.691 23.2727 12.9907 23.2727 15.5164C23.2727 18.0422 23.2629 18.3419 23.2175 19.3396C23.1753 20.2623 23.0212 20.7631 22.8916 21.0964C22.7201 21.538 22.5147 21.8525 22.1835 22.1836C21.8523 22.5148 21.5378 22.7199 21.096 22.8914C20.7629 23.0215 20.2617 23.1753 19.3391 23.2175C18.3415 23.2629 18.0419 23.2727 15.5153 23.2727C12.9884 23.2727 12.689 23.2629 11.6914 23.2175C10.7688 23.1749 10.268 23.0207 9.93426 22.8912C9.49265 22.7197 9.17722 22.5146 8.84602 22.1834C8.51481 21.8521 8.30978 21.5374 8.13787 21.0956C8.00834 20.7624 7.85398 20.2615 7.81199 19.3388C7.76664 18.3411 7.75758 18.0414 7.75758 15.5141C7.75758 12.9867 7.76664 12.6886 7.81199 11.6909C7.85418 10.7682 8.00834 10.2674 8.13787 9.93375C8.30939 9.49209 8.51481 9.17661 8.84602 8.84537C9.17722 8.51412 9.49265 8.30906 9.93426 8.13713C10.2678 8.007 10.7688 7.8532 11.6914 7.81081C12.5644 7.77138 12.9027 7.75955 14.6663 7.75758V7.75994C14.8311 7.75968 15.0084 7.75976 15.1997 7.75985ZM15.5139 12.3634C17.2559 12.3634 18.6683 13.7757 18.6683 15.5181C18.6683 17.2603 17.2559 18.6729 15.5139 18.6729C13.7718 18.6729 12.3596 17.2603 12.3596 15.5181C12.3596 13.7757 13.7718 12.3634 15.5139 12.3634ZM19.4297 10.4669C19.4297 9.83971 19.9383 9.3316 20.5652 9.3316V9.3312C21.1922 9.3312 21.7008 9.8399 21.7008 10.4669C21.7008 11.0939 21.1922 11.6026 20.5652 11.6026C19.9383 11.6026 19.4297 11.0939 19.4297 10.4669ZM15.5147 10.6584C12.8309 10.6584 10.6551 12.8346 10.6551 15.5186C10.6551 18.2027 12.8309 20.3779 15.5147 20.3779C18.1984 20.3779 20.3735 18.2027 20.3735 15.5186C20.3735 12.8346 18.1983 10.6585 15.5147 10.6584Z" fill="#3951D2"/>
</svg>
